<?xml version="1.0" encoding="UTF-8"?>
<svg width="752pt" height="752pt" version="1.1" viewBox="0 0 752 752" xmlns="http://www.w3.org/2000/svg">
 <g>
  <path d="m527.7 451.92c-25.012-24.27-39.367-58.16-39.367-92.941v-25.453c0-46.32-28.562-87.465-70.891-104.04l0.003906-13.023c0-10.953-4.4414-21.605-11.988-29.156-7.8438-7.8438-18.203-12.281-29.453-12.281-22.793 0-41.438 18.648-41.438 41.438v13.172c-13.91 5.625-26.641 13.91-37.441 24.566-21.016 21.164-32.707 49.281-32.707 79.176v24.863c0 35.223-14.652 69.41-40.254 93.828-3.2578 3.1094-5.0312 7.3984-5.0312 11.84v40.105c0 9.0273 7.25 16.426 16.426 16.426h69.41c7.3984 32.41 36.406 56.684 71.039 56.684 34.629 0 63.637-24.27 71.184-56.684h69.41c9.0273 0 16.426-7.3984 16.426-16.426v-40.105c0-4.4414-1.7773-8.7305-5.0312-11.691zm-151.7 92.348c-16.426 0-30.488-9.9141-36.852-23.977h73.699c-6.3594 14.062-20.418 23.977-36.848 23.977zm-8.7305-327.8c0-4.8828 3.8477-8.7305 8.7305-8.7305 2.3672 0 4.4414 0.88672 6.2148 2.6641 1.6289 1.6289 2.5156 3.8477 2.5156 6.2148v5.3281c-5.7734-0.44531-11.543-0.44531-17.316 0l0.003907-5.4766zm132.9 271.12h-248.33v-17.02c28.859-30.043 45.285-70.594 45.285-112.48v-24.863c0-21.164 8.2891-40.996 23.086-55.941 9.7695-9.7695 21.754-16.723 35.074-20.422 0.59375-0.14844 1.1836-0.14844 1.7773-0.29688 13.023-3.2578 26.785-3.2578 39.809 0.14844 34.629 9.1758 58.754 40.699 58.754 76.512v25.453c0 41.289 16.133 81.691 44.547 111.59z"/>
  <path d="m194.71 367.42 27.23 5.625c1.1836 0.29688 2.2188 0.29688 3.4023 0.29688 7.5469 0 14.355-5.3281 15.984-13.023 1.7773-8.8789-3.8477-17.465-12.727-19.387l-27.23-5.4805c-8.8789-1.9258-17.465 3.8477-19.387 12.727-1.7734 8.7344 3.8477 17.465 12.727 19.242z"/>
  <path d="m230.67 406.19c-1.4805-8.8789-9.7695-14.949-18.648-13.617l-29.449 4.7344c-8.8789 1.4805-14.949 9.7695-13.617 18.648 1.332 7.9922 8.2891 13.762 16.133 13.762 0.88672 0 1.7773 0 2.5156-0.14844l29.449-4.7344c9.0273-1.3281 15.098-9.7656 13.617-18.645z"/>
  <path d="m202.11 303.19 25.16 15.984c2.6641 1.7773 5.7734 2.5156 8.7305 2.5156 5.4766 0 10.656-2.6641 13.762-7.5469 4.8828-7.5469 2.6641-17.758-5.0312-22.645l-25.16-15.984c-7.5469-4.8828-17.758-2.6641-22.645 5.0312-4.5859 7.6992-2.3633 17.91 5.1836 22.645z"/>
  <path d="m550.63 335.45-27.23 5.625c-8.8789 1.7773-14.504 10.508-12.727 19.387 1.6289 7.6953 8.4375 13.023 15.984 13.023 1.0352 0 2.2188-0.14844 3.4023-0.29688l27.23-5.625c8.8789-1.7773 14.504-10.508 12.727-19.387-1.9219-8.875-10.504-14.648-19.387-12.727z"/>
  <path d="m569.43 397.16-29.449-4.7344c-8.8789-1.332-17.316 4.7344-18.648 13.617-1.332 8.8789 4.7344 17.316 13.617 18.648l29.449 4.7344c0.88672 0.14844 1.7773 0.14844 2.5156 0.14844 7.8438 0 14.801-5.7734 16.133-13.762 1.332-8.7344-4.7383-17.172-13.617-18.652z"/>
  <path d="m516 321.84c2.9609 0 6.0664-0.88672 8.7305-2.5156l25.16-15.984c7.5469-4.8828 9.9141-14.949 5.0312-22.645-4.8828-7.6953-14.949-9.9141-22.645-5.0312l-25.16 15.984c-7.5469 4.8828-9.9141 14.949-5.0312 22.645 3.2578 4.8828 8.4375 7.5469 13.914 7.5469z"/>
 </g>
</svg>
