<?xml version="1.0" encoding="UTF-8"?>
<svg width="752pt" height="752pt" version="1.1" viewBox="0 0 752 752" xmlns="http://www.w3.org/2000/svg">
 <path d="m553.59 474.66h-24.055l-15.41-61.625v-76.504c-0.039062-33.188-12.023-65.25-33.766-90.324-21.742-25.074-51.781-41.484-84.629-46.223v-21.312h-39.465v21.312c-32.848 4.7383-62.891 21.148-84.629 46.223-21.742 25.074-33.727 57.137-33.766 90.324v76.504l-15.414 61.625h-24.051v39.465h101.46c5.7812 22.727 21.418 41.68 42.629 51.68 21.211 10 45.781 10 66.996 0 21.211-10 36.844-28.953 42.629-51.68h101.46zm-276.85-54.402 0.59375-83.727c0-35.246 18.805-67.82 49.332-85.441 30.523-17.625 68.133-17.625 98.66 0 30.527 17.621 49.332 50.195 49.332 85.441v78.93l14.367 59.199h-225.88zm99.254 113.6c-14.035-0.042969-26.984-7.5625-33.977-19.734h67.957c-6.9922 12.172-19.941 19.691-33.98 19.734z"/>
</svg>
